<svg xmlns="http://www.w3.org/2000/svg" width="27.289" height="38.772" viewBox="0 0 27.289 38.772"><defs><style>.a{fill:#78e6d0;}</style></defs><path class="a" d="M443.3,324.213c-.093.982-.158,1.745-.245,2.506a.333.333,0,0,1-.215.23,13.839,13.839,0,0,1-7.742-.892,7.628,7.628,0,0,1-4.274-5.427,15.139,15.139,0,0,1-.261-5.871.408.408,0,0,1,.231-.293,14.64,14.64,0,0,1,6.324.345,7.715,7.715,0,0,1,5.723,6.169c.249,1.126.33,2.291.458,3.233m-11.252-8.276a12.914,12.914,0,0,0,.658,5.306,5.816,5.816,0,0,0,3.491,3.533,10.93,10.93,0,0,0,3.488.7c.626.027,1.255,0,1.91,0a12.948,12.948,0,0,0-.708-5.409,5.741,5.741,0,0,0-3.018-3.258,9.747,9.747,0,0,0-3.615-.87c-.725-.039-1.455-.008-2.206-.008" transform="translate(-430.395 -301.243)"/><path class="a" d="M447.926,342.313a14.943,14.943,0,0,1-.142-4.115,11.238,11.238,0,0,1,1.2-4.225,7.535,7.535,0,0,1,4.789-3.734,14.867,14.867,0,0,1,6.571-.35,13.648,13.648,0,0,1,.2,3.23,12.97,12.97,0,0,1-.819,4.153,7.567,7.567,0,0,1-5.212,4.7,14.863,14.863,0,0,1-6.285.4c-.1-.013-.2-.042-.3-.066m2.6-1.417c0,.014,0,.028,0,.042.55-.038,1.106-.042,1.65-.122a14.657,14.657,0,0,0,1.847-.388,5.935,5.935,0,0,0,4.194-3.729,13.1,13.1,0,0,0,.719-5.016c-.006-.305-.117-.381-.4-.386a15.081,15.081,0,0,0-3.825.35,6.135,6.135,0,0,0-4.292,3.047,11.322,11.322,0,0,0-1.069,5.976c0,.079.163.207.258.215.3.028.608.011.913.011" transform="translate(-433.275 -303.807)"/><path class="a" d="M440.2,342.579a14.419,14.419,0,0,1-4.562-.883,7.5,7.5,0,0,1-4.6-4.892,14.791,14.791,0,0,1-.468-6.679.364.364,0,0,1,.232-.248,13.617,13.617,0,0,1,7.612.823,7.555,7.555,0,0,1,4.377,5.411,15.093,15.093,0,0,1,.354,5.231,4.972,4.972,0,0,0-.062.671c.013.3-.167.354-.4.372q-1.244.1-2.489.194m1.389-1.673a12.285,12.285,0,0,0-.88-5.852,5.393,5.393,0,0,0-2.116-2.437,10.977,10.977,0,0,0-6.353-1.295c-.07,0-.189.148-.193.23a12.934,12.934,0,0,0,.532,4.739,5.9,5.9,0,0,0,3.491,3.837,11.494,11.494,0,0,0,3.783.773c.56.029,1.123.005,1.737.005" transform="translate(-430.394 -303.807)"/><path class="a" d="M450.378,327.165c-.74-.067-1.481-.128-2.219-.207a.343.343,0,0,1-.247-.2,13.07,13.07,0,0,1,1.122-8.255,7.443,7.443,0,0,1,4.85-3.706,15.26,15.26,0,0,1,6.262-.353c.281.039.249.24.259.392.06.944.156,1.891.133,2.834a11.853,11.853,0,0,1-1.007,4.655,7.68,7.68,0,0,1-5.47,4.367,15.721,15.721,0,0,1-3.683.468m-1.048-1.68a13.135,13.135,0,0,0,5.348-.676A5.893,5.893,0,0,0,458.331,321a11.874,11.874,0,0,0,.607-3.781c0-.423,0-.846,0-1.281-.246-.023-.423-.05-.6-.053a14.379,14.379,0,0,0-3.816.4A6.114,6.114,0,0,0,450,320.247a11.906,11.906,0,0,0-.666,3.872c-.008.447,0,.9,0,1.366" transform="translate(-433.276 -301.244)"/><path class="a" d="M445.763,315.126c-2.323-1.916-4.159-4.146-4.7-7.216a7.169,7.169,0,0,1,.734-4.46,13.573,13.573,0,0,1,3.914-4.762.535.535,0,0,1,.105-.048,13.629,13.629,0,0,1,3.023,3.2,9.6,9.6,0,0,1,1.678,4.012,7.561,7.561,0,0,1-.846,4.669,13.558,13.558,0,0,1-3.734,4.485c-.043.034-.091.063-.175.121m.043-14.386a11.531,11.531,0,0,0-2.613,3.56,5.784,5.784,0,0,0-.593,2.3c-.04,2.678,1.435,4.605,3.183,6.413a11.568,11.568,0,0,0,2.662-3.67,5.681,5.681,0,0,0,.465-3.393,10.128,10.128,0,0,0-3.1-5.216" transform="translate(-432.154 -298.641)"/></svg>