<svg xmlns="http://www.w3.org/2000/svg" width="75" height="75" viewBox="0 0 75 75">
  <defs>
    <style>
      .cls-1 {
        fill: #78e6d0;
      }
    </style>
  </defs>
  <g id="Group_2518" data-name="Group 2518" transform="translate(0 -0.001)">
    <g id="Group_2517" data-name="Group 2517" transform="translate(0 0.001)">
      <path id="Path_10679" data-name="Path 10679" class="cls-1" d="M18.672,46.759H70.449a2.2,2.2,0,0,0,2.192-2.041l2.354-32.949A2.2,2.2,0,0,0,72.8,9.415H46.758V4.552a2.2,2.2,0,0,0-4.395,0V9.415H17.948l-.617-7.4A2.2,2.2,0,0,0,15.141,0H2.2A2.2,2.2,0,1,0,2.2,4.4H13.12l.644,7.72,2.546,30.556A9.258,9.258,0,0,0,18.672,60.88h.365a9.258,9.258,0,1,0,15.746,0H55.515a9.259,9.259,0,1,0,15.664-.127,2.2,2.2,0,0,0-.731-4.267H18.672a4.863,4.863,0,0,1,0-9.727ZM42.363,13.81v13.68l-3.31-3.31a2.2,2.2,0,1,0-3.107,3.107l7.06,7.06a2.2,2.2,0,0,0,3.107,0l7.061-7.06a2.2,2.2,0,1,0-3.107-3.107l-3.31,3.31V13.81H70.443L68.4,42.364H20.694L18.314,13.81ZM63.388,60.88a4.863,4.863,0,1,1-4.863,4.863A4.869,4.869,0,0,1,63.388,60.88Zm-36.479,0a4.863,4.863,0,1,1-4.863,4.863A4.869,4.869,0,0,1,26.91,60.88Z" transform="translate(0 -0.001)"/>
    </g>
  </g>
</svg>
