<svg xmlns="http://www.w3.org/2000/svg" width="75" height="80.416" viewBox="0 0 75 80.416">
  <defs>
    <style>
      .cls-1 {
        fill: #78e6d0;
      }
    </style>
  </defs>
  <path id="Path_10678" data-name="Path 10678" class="cls-1" d="M-2908.426,15.2h51.777a2.2,2.2,0,0,0,2.192-2.041l2.354-32.949a2.2,2.2,0,0,0-.584-1.654,2.2,2.2,0,0,0-1.608-.7h-26.045v-7.328l3.31,3.31a2.2,2.2,0,0,0,3.107,0,2.2,2.2,0,0,0,0-3.107l-7.061-7.06a2.19,2.19,0,0,0-1.554-.644,2.192,2.192,0,0,0-1.554.644l-7.061,7.06a2.2,2.2,0,0,0,0,3.107,2.2,2.2,0,0,0,3.107,0l3.31-3.31v7.322h0v.006h-24.415l-.617-7.4a2.2,2.2,0,0,0-2.189-2.015H-2924.9a2.2,2.2,0,0,0-2.2,2.2,2.2,2.2,0,0,0,2.2,2.2h10.922l.644,7.72,2.546,30.556a9.273,9.273,0,0,0-6.9,8.951,9.268,9.268,0,0,0,9.258,9.258h.365a9.2,9.2,0,0,0-1.385,4.863,9.268,9.268,0,0,0,9.258,9.258,9.268,9.268,0,0,0,9.258-9.258,9.2,9.2,0,0,0-1.385-4.863h20.733a9.2,9.2,0,0,0-1.385,4.863,9.268,9.268,0,0,0,9.258,9.258,9.268,9.268,0,0,0,9.258-9.258,9.2,9.2,0,0,0-1.467-4.99,2.2,2.2,0,0,0,1.467-2.07,2.2,2.2,0,0,0-2.2-2.2h-51.777a4.869,4.869,0,0,1-4.863-4.863A4.869,4.869,0,0,1-2908.426,15.2Zm19.7-32.949h4v1.957h-.006V-11.4h.006v4.863a2.2,2.2,0,0,0,2.2,2.2,2.2,2.2,0,0,0,2.2-2.2V-17.748h23.685l-2.04,28.555H-2906.4l-2.38-28.555Zm25.022,47.07a4.869,4.869,0,0,1,4.863,4.863,4.869,4.869,0,0,1-4.863,4.863,4.869,4.869,0,0,1-4.863-4.863A4.869,4.869,0,0,1-2863.709,29.322Zm-36.479,0a4.869,4.869,0,0,1,4.863,4.863,4.869,4.869,0,0,1-4.863,4.863,4.869,4.869,0,0,1-4.863-4.863A4.869,4.869,0,0,1-2900.188,29.322Z" transform="translate(2927.098 36.973)"/>
</svg>
