<svg xmlns="http://www.w3.org/2000/svg" xmlns:xlink="http://www.w3.org/1999/xlink" width="20" height="20" viewBox="0 0 20 20"><defs><style>.a{fill:#020a09;}.b{fill:#fff;}.c{clip-path:url(#a);}</style><clipPath id="a"><path class="a" d="M10,20A10,10,0,0,1,2.926,2.926,10,10,0,0,1,17.074,17.074,9.936,9.936,0,0,1,10,20Zm0-8.59h0L13.59,15,15,13.59,11.41,10,15,6.41,13.59,5,10,8.59,6.41,5,5,6.41,8.59,10,5,13.59,6.41,15,10,11.411Z" transform="translate(2 2)"/></clipPath></defs><circle class="b" cx="7.5" cy="7.5" r="7.5" transform="translate(2.5 3)"/><g transform="translate(-2 -2)"><path class="a" d="M10,20A10,10,0,0,1,2.926,2.926,10,10,0,0,1,17.074,17.074,9.936,9.936,0,0,1,10,20Zm0-8.59h0L13.59,15,15,13.59,11.41,10,15,6.41,13.59,5,10,8.59,6.41,5,5,6.41,8.59,10,5,13.59,6.41,15,10,11.411Z" transform="translate(2 2)"/></g></svg>