<svg xmlns="http://www.w3.org/2000/svg" width="37.337" height="37.281" viewBox="0 0 37.337 37.281"><defs><style>.a{fill:#78e6d0;}</style></defs><path class="a" d="M34.849,4.2H2.486A2.486,2.486,0,0,0,0,6.682V27.188a1.864,1.864,0,0,0,1.864,1.864H9.206A9.919,9.919,0,0,0,23.68,34.5l6.252,6.252a2.486,2.486,0,1,0,3.515-3.515L27.2,30.983a9.841,9.841,0,0,0,.875-1.931h7.349a1.864,1.864,0,0,0,1.864-1.864V10.038c.071-.165.052.024.052-3.355A2.485,2.485,0,0,0,34.849,4.2ZM12.486,32.1a8.7,8.7,0,1,1,12.3,0A8.7,8.7,0,0,1,12.486,32.1Zm15.379,4.832L24.731,33.79a9.025,9.025,0,0,0,1.756-1.756l3.135,3.136a1.243,1.243,0,0,1-1.757,1.757Zm4.7,2.946a1.243,1.243,0,0,1-1.758,0l-1.433-1.433a2.407,2.407,0,0,0,1.758-1.758l1.433,1.433a1.243,1.243,0,0,1,0,1.755ZM36.04,27.188a.621.621,0,0,1-.621.621H28.4a9.942,9.942,0,1,0-19.522,0H1.864a.621.621,0,0,1-.621-.621V6.682A1.243,1.243,0,0,1,2.486,5.44H34.849a1.243,1.243,0,0,1,1.243,1.243V9.541C36.017,9.717,36.04,8.412,36.04,27.188Z" transform="translate(0 -4.197)"/><path class="a" d="M70.885,37.771a2.485,2.485,0,0,0-2.429,3l-4.406,2.2a2.469,2.469,0,0,0-3.92.232l-4.3-1.532a2.478,2.478,0,1,0-4.559.3l-5.694,4.934a2.489,2.489,0,1,0,.808.944l5.694-4.934a2.453,2.453,0,0,0,3.035-.18l4.611,1.642a2.479,2.479,0,1,0,4.892-.3l4.406-2.2a2.481,2.481,0,1,0,1.864-4.112ZM44.165,50.2a1.243,1.243,0,1,1,1.243-1.243A1.243,1.243,0,0,1,44.165,50.2Zm8.078-9.32a1.243,1.243,0,1,1,1.243,1.243A1.243,1.243,0,0,1,52.243,40.878Zm9.942,4.971a1.243,1.243,0,1,1,1.243-1.243A1.243,1.243,0,0,1,62.185,45.849Zm8.7-4.35a1.243,1.243,0,1,1,.879-.364A1.243,1.243,0,0,1,70.885,41.5Z" transform="translate(-38.573 -35.285)"/><path class="a" d="M163.756,199.377a7.457,7.457,0,1,0,0,10.545A7.457,7.457,0,0,0,163.756,199.377Zm-.879,9.666a6.214,6.214,0,1,1,0-8.787A6.214,6.214,0,0,1,162.878,209.043Z" transform="translate(-139.846 -182.905)"/></svg>