<svg xmlns="http://www.w3.org/2000/svg" width="18.729" height="30.893" viewBox="0 0 18.729 30.893"><defs><style>.a{fill:#78e6d0;}</style></defs><path class="a" d="M445.267,509.878h.721c1.916,0,3.832,0,5.748,0a1.13,1.13,0,0,1,1.075.605,1.076,1.076,0,0,1-.1,1.2q-5.425,8.288-10.845,16.581a2.357,2.357,0,0,1-.473.583,1.053,1.053,0,0,1-1.292.025,1.174,1.174,0,0,1-.428-1.209q1.105-5.086,2.2-10.174a.617.617,0,0,0-.007-.1h-.31q-3.025,0-6.049,0a1.164,1.164,0,0,1-1.275-.975,1.1,1.1,0,0,1,.225-.815q1.623-2.484,3.243-4.969,3.842-5.893,7.682-11.788a1.168,1.168,0,0,1,1.164-.644,1.1,1.1,0,0,1,.932,1.423q-.768,3.56-1.542,7.119c-.224,1.034-.443,2.07-.674,3.141m-2.143,12.3.07.016,6.609-10.118h-.367c-1.816,0-3.633,0-5.449,0a1.1,1.1,0,0,1-1.152-1.425c.09-.426.185-.851.276-1.275q.471-2.178.942-4.354c-.013-.007-.028-.014-.042-.02-2.2,3.371-4.4,6.742-6.638,10.164h.36q2.712,0,5.422,0a1.112,1.112,0,0,1,1.17,1.437c-.27,1.285-.556,2.567-.834,3.852q-.185.86-.368,1.723" transform="translate(-434.221 -498.185)"/></svg>