<svg xmlns="http://www.w3.org/2000/svg" width="30.616" height="30.597" viewBox="0 0 30.616 30.597"><defs><style>.a{fill:#78e6d0;}</style></defs><path class="a" d="M443.3,135.981a16.412,16.412,0,0,1-2.175-.148,15.161,15.161,0,0,1-12.746-11.316,14.967,14.967,0,0,1,2.238-12.579.888.888,0,0,1,.714-.446.741.741,0,0,1,.425.14.788.788,0,0,1,.128,1.17,13.72,13.72,0,0,0-2.432,8.919,13.892,13.892,0,0,0,2.519,6.917,17.622,17.622,0,0,0,4.453-1.948c-.039-.047-.076-.094-.112-.141a6.528,6.528,0,0,1,.132-8.506,7.665,7.665,0,0,1,4.93-2.816,5.053,5.053,0,0,0,3.6-2.373,8.687,8.687,0,0,0,.55-1.017.835.835,0,0,1,.74-.571.956.956,0,0,1,.656.316,8.34,8.34,0,0,1,1.919,2.95,14.231,14.231,0,0,1,.817,8.6,7.221,7.221,0,0,1-3.642,5.074,7.939,7.939,0,0,1-3.765.918,9.836,9.836,0,0,1-1.288-.087,7.613,7.613,0,0,1-3.325-1.242,21.827,21.827,0,0,1-4.61,2.13,13.7,13.7,0,0,0,18.807,1.425l-1.506-.32c-.16-.032-.322-.065-.481-.1a.79.79,0,0,1-.673-.909.778.778,0,0,1,.8-.617,1.139,1.139,0,0,1,.2.019c.45.084.9.179,1.348.275l2.674.563.018.163a2.015,2.015,0,0,1,.026.243l.015.863q.026,1.433.047,2.865a.928.928,0,0,1-.238.673.689.689,0,0,1-.5.205.864.864,0,0,1-.264-.042.746.746,0,0,1-.539-.771l-.036-1.839a15.049,15.049,0,0,1-9.425,3.363m-4.271-9.173a6.436,6.436,0,0,0,3.08.774,7.957,7.957,0,0,0,1.844-.228,5.431,5.431,0,0,0,4.048-3.975,11.341,11.341,0,0,0,.213-5.483,10.756,10.756,0,0,0-1.715-4.454l-.036-.05a6.787,6.787,0,0,1-4.917,3.368,6.094,6.094,0,0,0-4.807,3.707,4.98,4.98,0,0,0,1.024,5.371l.325-.258c.44-.35.879-.7,1.323-1.039.1-.075.124-.129.085-.3-.2-.859-.382-1.721-.569-2.583l-.112-.518a.785.785,0,0,1,.572-1,.775.775,0,0,1,.175-.02.794.794,0,0,1,.753.677c.055.237.105.476.155.713l.368,1.68.258-.3c.456-.536.911-1.072,1.372-1.6a.215.215,0,0,0,.04-.3c-.283-.6-.549-1.21-.806-1.823a.859.859,0,0,1,.055-.813.68.68,0,0,1,.575-.31.791.791,0,0,1,.191.024,1.043,1.043,0,0,1,.589.516c.171.326.313.665.466,1.021l.018.042c.032-.053.063-.105.092-.158l.3-.545c.125-.229.25-.458.379-.684a.718.718,0,0,1,.634-.394.824.824,0,0,1,.179.02.729.729,0,0,1,.608.7,1.079,1.079,0,0,1-.134.518c-.2.383-.412.762-.629,1.155l-.03.055,1.014-.16a1.02,1.02,0,0,1,.172-.014.755.755,0,0,1,.786.665.787.787,0,0,1-.7.868l-.366.062a7.926,7.926,0,0,1-.957.127,1.818,1.818,0,0,0-1.735.946,1.58,1.58,0,0,1-.275.348l-.089.095-.7.783.629.026c.49.02.981.039,1.47.067a.765.765,0,0,1,.8.752.737.737,0,0,1-.2.544.832.832,0,0,1-.614.235l-.548-.018c-.812-.028-1.623-.056-2.433-.118-.056-.005-.11-.007-.164-.007a1.22,1.22,0,0,0-.915.373,10.253,10.253,0,0,1-.971.8l-.168.127" transform="translate(-427.867 -105.384)"/><path class="a" d="M456.071,128.427a.674.674,0,0,1-.192-.029.9.9,0,0,1-.559-.544,1.012,1.012,0,0,1,.16-.739,13.064,13.064,0,0,0,1.619-3.467,13.436,13.436,0,0,0-3.669-14.032,12.918,12.918,0,0,0-9.351-3.8c-.471,0-.955.022-1.44.065a13.374,13.374,0,0,0-7.21,2.9l1.729.355c.841.186.819.73.771.957a.744.744,0,0,1-.79.591,1.411,1.411,0,0,1-.281-.029c-.634-.129-3.585-.74-3.585-.74a.454.454,0,0,1-.4-.481c-.008-.637-.018-1.272-.029-1.909s-.022-1.273-.029-1.909a.748.748,0,0,1,.739-.79h0a.748.748,0,0,1,.788.776c.007.584.007,1.169.006,1.754v.308c.071-.058.142-.115.214-.17a15.133,15.133,0,0,1,9.356-3.222c.292,0,.587.008.884.024a15.184,15.184,0,0,1,13.959,11.454,14.964,14.964,0,0,1-2.007,12.219.869.869,0,0,1-.681.465" transform="translate(-428.657 -104.266)"/></svg>