<svg xmlns="http://www.w3.org/2000/svg" width="31.688" height="31.7" viewBox="0 0 31.688 31.7"><defs><style>.a{fill:#78e6d0;}</style></defs><path class="a" d="M427.058,119.5a15.843,15.843,0,1,1,16.074,15.984A15.834,15.834,0,0,1,427.058,119.5m23.434-.671c-.2-1.805-.394-3.514-.581-5.189h-6.216v5.189Zm-6.793,1.625v5.2h6.222c.187-1.74.371-3.451.558-5.2Zm-8.383-1.633h6.766v-5.2h-6.193c-.19,1.721-.378,3.433-.573,5.2m-.006,1.636c.2,1.807.4,3.514.585,5.2h6.185v-5.2Zm8.384-15.1v6.724c1.8,0,3.553,0,5.307,0,.122,0,.244-.022.459-.043-.258-.716-.471-1.4-.748-2.056a8.732,8.732,0,0,0-2.982-4.014,3.274,3.274,0,0,0-2.036-.609m-.018,28.5c2.415.388,5.121-3.425,5.647-6.607h-5.647Zm-7.249-21.831h5.666V105.4c-2.3-.3-4.816,2.889-5.666,6.626m5.66,21.859v-6.644h-5.674a11.083,11.083,0,0,0,3.309,5.832,3.215,3.215,0,0,0,2.365.812M433.8,118.834l.52-5.244h-2.437c-2.184,0-2.211-.007-2.749,2.114-.257,1.009-.394,2.049-.6,3.13Zm0,1.622h-5.176a13.635,13.635,0,0,0,1.161,4.941.567.567,0,0,0,.415.277c1.375.021,2.749.012,4.118.012-.175-1.769-.346-3.487-.519-5.23m23.361-1.632a13.4,13.4,0,0,0-1.176-4.99.446.446,0,0,0-.313-.232c-1.413-.016-2.826-.01-4.2-.01.178,1.772.351,3.488.527,5.231Zm-5.655,6.834a.159.159,0,0,0,.075.02q1.492.008,2.983.009c1.4,0,1.411,0,1.859-1.335a11.881,11.881,0,0,0,.717-3.936c-1.659,0-3.263-.012-4.867.023-.127,0-.337.315-.355.5-.156,1.553-.276,3.11-.412,4.719M437.095,106.61a13.325,13.325,0,0,0-6.333,5.465c1.3,0,2.46.013,3.622-.016a.625.625,0,0,0,.463-.345,19.878,19.878,0,0,1,2.248-5.1m-.075,26.038c-.608-1.356-1.3-2.789-1.893-4.265-.461-1.156-.4-1.18-1.648-1.18h-2.667c1.281,2.344,4.441,5.034,6.208,5.446m17.961-20.574a13.2,13.2,0,0,0-6.431-5.547,16.964,16.964,0,0,1,2.419,5.248.52.52,0,0,0,.385.287c1.183.023,2.366.013,3.627.013m-6.5,20.749a14.234,14.234,0,0,0,6.561-5.62c-1.323,0-2.506-.009-3.688.013a.515.515,0,0,0-.383.287,17.488,17.488,0,0,1-2.491,5.32" transform="translate(-427.056 -103.784)"/></svg>