<svg xmlns="http://www.w3.org/2000/svg" xmlns:xlink="http://www.w3.org/1999/xlink" width="24" height="24" viewBox="0 0 24 24"><defs><style>.a{fill:#bac0c5;}.b{clip-path:url(#a);}</style><clipPath id="a"><path class="a" d="M15,14.08a2.912,2.912,0,0,0-1.96.77L5.91,10.7A3.274,3.274,0,0,0,6,10a3.274,3.274,0,0,0-.09-.7l7.05-4.11A2.993,2.993,0,1,0,12,3a3.274,3.274,0,0,0,.09.7L5.04,7.81a3,3,0,1,0,0,4.38l7.12,4.16a2.821,2.821,0,0,0-.08.65A2.92,2.92,0,1,0,15,14.08Z" transform="translate(3 2)"/></clipPath></defs><path class="a" d="M15,14.08a2.912,2.912,0,0,0-1.96.77L5.91,10.7A3.274,3.274,0,0,0,6,10a3.274,3.274,0,0,0-.09-.7l7.05-4.11A2.993,2.993,0,1,0,12,3a3.274,3.274,0,0,0,.09.7L5.04,7.81a3,3,0,1,0,0,4.38l7.12,4.16a2.821,2.821,0,0,0-.08.65A2.92,2.92,0,1,0,15,14.08Z" transform="translate(3 2)"/></svg>