<svg xmlns="http://www.w3.org/2000/svg" xmlns:xlink="http://www.w3.org/1999/xlink" width="24" height="24" viewBox="0 0 24 24"><defs><style>.a{fill:#bac0c5;}.b{clip-path:url(#a);}</style><clipPath id="a"><path class="a" d="M15,10H11V8.1h4a3.1,3.1,0,0,0,0-6.2H11V0h4a5,5,0,0,1,0,10ZM9,10H5A5,5,0,1,1,5,0H9V1.9H5A3.1,3.1,0,1,0,5,8.1H9V10Zm5-4H6V4h8V6Z" transform="translate(2 7)"/></clipPath></defs><path class="a" d="M15,10H11V8.1h4a3.1,3.1,0,0,0,0-6.2H11V0h4a5,5,0,0,1,0,10ZM9,10H5A5,5,0,1,1,5,0H9V1.9H5A3.1,3.1,0,1,0,5,8.1H9V10Zm5-4H6V4h8V6Z" transform="translate(2 7)"/></svg>