<svg xmlns="http://www.w3.org/2000/svg" xmlns:xlink="http://www.w3.org/1999/xlink" width="24" height="24" viewBox="0 0 24 24"><defs><style>.a{fill:#bac0c5;}.b{clip-path:url(#a);}</style><clipPath id="a"><path class="a" d="M10,18.35,8.55,17.03C3.4,12.36,0,9.28,0,5.5A5.447,5.447,0,0,1,5.5,0,5.988,5.988,0,0,1,10,2.09,5.988,5.988,0,0,1,14.5,0,5.447,5.447,0,0,1,20,5.5c0,3.78-3.4,6.86-8.55,11.54Z" transform="translate(2 3)"/></clipPath></defs><path class="a" d="M10,18.35,8.55,17.03C3.4,12.36,0,9.28,0,5.5A5.447,5.447,0,0,1,5.5,0,5.988,5.988,0,0,1,10,2.09,5.988,5.988,0,0,1,14.5,0,5.447,5.447,0,0,1,20,5.5c0,3.78-3.4,6.86-8.55,11.54Z" transform="translate(2 3)"/></svg>