<svg xmlns="http://www.w3.org/2000/svg" xmlns:xlink="http://www.w3.org/1999/xlink" width="24" height="24" viewBox="0 0 24 24"><defs><style>.a{fill:#bac0c5;}.b{clip-path:url(#a);}</style><clipPath id="a"><path class="a" d="M10,20A10,10,0,1,1,20,10,10.011,10.011,0,0,1,10,20ZM10,2a8,8,0,1,0,8,8A8.009,8.009,0,0,0,10,2ZM8,15H8L3,10,4.41,8.59,8,12.17l6.59-6.59L16,7,8,15Z" transform="translate(2 2)"/></clipPath></defs><path class="a" d="M10,20A10,10,0,1,1,20,10,10.011,10.011,0,0,1,10,20ZM10,2a8,8,0,1,0,8,8A8.009,8.009,0,0,0,10,2ZM8,15H8L3,10,4.41,8.59,8,12.17l6.59-6.59L16,7,8,15Z" transform="translate(2 2)"/></svg>