<svg xmlns="http://www.w3.org/2000/svg" xmlns:xlink="http://www.w3.org/1999/xlink" width="24" height="24" viewBox="0 0 24 24"><defs><style>.a{fill:#bac0c5;}.b{clip-path:url(#a);}</style><clipPath id="a"><path class="a" d="M3.818,19v0L5.46,11.97,0,7.24,7.19,6.63,10,0l2.81,6.62L20,7.24,14.55,11.97,16.18,19,10,15.27,3.82,19ZM10,4.1h0v9.3l3.77,2.28-1-4.28,3.32-2.88L11.71,8.14Z" transform="translate(2 2)"/></clipPath></defs><path class="a" d="M3.818,19v0L5.46,11.97,0,7.24,7.19,6.63,10,0l2.81,6.62L20,7.24,14.55,11.97,16.18,19,10,15.27,3.82,19ZM10,4.1h0v9.3l3.77,2.28-1-4.28,3.32-2.88L11.71,8.14Z" transform="translate(2 2)"/></svg>