<svg xmlns="http://www.w3.org/2000/svg" xmlns:xlink="http://www.w3.org/1999/xlink" width="24" height="24" viewBox="0 0 24 24"><defs><style>.a{fill:#bac0c5;}.b{clip-path:url(#a);}</style><clipPath id="a"><path class="a" d="M11.089,1.9A6.5,6.5,0,0,0,3.649.656L7.989,5l-3,3L.649,3.656a6.493,6.493,0,0,0,8.14,8.91l9.11,9.11a1,1,0,0,0,1.41,0l2.3-2.3a1,1,0,0,0,0-1.41l-9.07-9.08A6.508,6.508,0,0,0,11.089,1.9Z" transform="translate(1.001 1.014)"/></clipPath></defs><path class="a" d="M11.089,1.9A6.5,6.5,0,0,0,3.649.656L7.989,5l-3,3L.649,3.656a6.493,6.493,0,0,0,8.14,8.91l9.11,9.11a1,1,0,0,0,1.41,0l2.3-2.3a1,1,0,0,0,0-1.41l-9.07-9.08A6.508,6.508,0,0,0,11.089,1.9Z" transform="translate(1.001 1.014)"/></svg>