<svg xmlns="http://www.w3.org/2000/svg" xmlns:xlink="http://www.w3.org/1999/xlink" width="14" height="20" viewBox="0 0 14 20"><defs><style>.a{fill:#bac0c5;}.b{clip-path:url(#a);}</style><clipPath id="a"><path class="a" d="M7,20H7a45.452,45.452,0,0,1-3.5-4.53C1.9,13.1,0,9.712,0,7A7,7,0,0,1,11.952,2.049,6.955,6.955,0,0,1,14,7c0,2.712-1.9,6.1-3.5,8.468A45.452,45.452,0,0,1,7,20ZM7,4.5A2.5,2.5,0,1,0,9.5,7,2.5,2.5,0,0,0,7,4.5Z" transform="translate(5 2)"/></clipPath></defs><g transform="translate(-5 -2)"><path class="a" d="M7,20H7a45.452,45.452,0,0,1-3.5-4.53C1.9,13.1,0,9.712,0,7A7,7,0,0,1,11.952,2.049,6.955,6.955,0,0,1,14,7c0,2.712-1.9,6.1-3.5,8.468A45.452,45.452,0,0,1,7,20ZM7,4.5A2.5,2.5,0,1,0,9.5,7,2.5,2.5,0,0,0,7,4.5Z" transform="translate(5 2)"/></g></svg>