<svg xmlns="http://www.w3.org/2000/svg" xmlns:xlink="http://www.w3.org/1999/xlink" width="24" height="24" viewBox="0 0 24 24"><defs><style>.a{fill:#bac0c5;}.b{clip-path:url(#a);}</style><clipPath id="a"><path class="a" d="M16,17.49h0L11,12.5v-.79l-.27-.28a6.509,6.509,0,1,1,.7-.7l.28.27h.79l4.99,5L16,17.489ZM6.5,2A4.5,4.5,0,1,0,11,6.5,4.505,4.505,0,0,0,6.5,2Z" transform="translate(3 3)"/></clipPath></defs><path class="a" d="M16,17.49h0L11,12.5v-.79l-.27-.28a6.509,6.509,0,1,1,.7-.7l.28.27h.79l4.99,5L16,17.489ZM6.5,2A4.5,4.5,0,1,0,11,6.5,4.505,4.505,0,0,0,6.5,2Z" transform="translate(3 3)"/></svg>