<svg xmlns="http://www.w3.org/2000/svg" xmlns:xlink="http://www.w3.org/1999/xlink" width="24" height="24" viewBox="0 0 24 24"><defs><style>.a{fill:#bac0c5;}.b{clip-path:url(#a);}</style><clipPath id="a"><path class="a" d="M8,19.5a2,2,0,0,1-2-2h4A2,2,0,0,1,8,19.5Zm8-3H0v-1l2-2v-5A7.087,7.087,0,0,1,3.177,4.44,5.529,5.529,0,0,1,6.5,2.18V1.5a1.5,1.5,0,0,1,3,0v.68a5.522,5.522,0,0,1,3.326,2.264A7.093,7.093,0,0,1,14,8.5v5l2,2v1ZM8,4C5.645,4,4,5.85,4,8.5v6h8v-6C12,5.85,10.355,4,8,4Z" transform="translate(4 2.5)"/></clipPath></defs><path class="a" d="M8,19.5a2,2,0,0,1-2-2h4A2,2,0,0,1,8,19.5Zm8-3H0v-1l2-2v-5A7.087,7.087,0,0,1,3.177,4.44,5.529,5.529,0,0,1,6.5,2.18V1.5a1.5,1.5,0,0,1,3,0v.68a5.522,5.522,0,0,1,3.326,2.264A7.093,7.093,0,0,1,14,8.5v5l2,2v1ZM8,4C5.645,4,4,5.85,4,8.5v6h8v-6C12,5.85,10.355,4,8,4Z" transform="translate(4 2.5)"/></svg>