<svg xmlns="http://www.w3.org/2000/svg" xmlns:xlink="http://www.w3.org/1999/xlink" width="24" height="24" viewBox="0 0 24 24"><defs><style>.a{fill:#bac0c5;}.b{clip-path:url(#a);}</style><clipPath id="a"><path class="a" d="M11.253,19.2H7.413a.487.487,0,0,1-.481-.408l-.36-2.544a7,7,0,0,1-1.62-.936l-2.388.96A.524.524,0,0,1,2.4,16.3a.473.473,0,0,1-.422-.243L.057,12.732a.5.5,0,0,1,.121-.612L2.2,10.536A6.081,6.081,0,0,1,2.133,9.6a5.971,5.971,0,0,1,.084-.936L.189,7.08a.465.465,0,0,1-.12-.612l1.92-3.325A.478.478,0,0,1,2.406,2.9a.471.471,0,0,1,.171.032l2.389.96a7.234,7.234,0,0,1,1.62-.936L6.945.408A.467.467,0,0,1,7.413,0h3.839a.48.48,0,0,1,.481.408l.36,2.544a7.037,7.037,0,0,1,1.62.936l2.388-.96a.524.524,0,0,1,.166-.027.473.473,0,0,1,.422.243l1.921,3.325a.5.5,0,0,1-.121.612L16.461,8.664a5.979,5.979,0,0,1,.072.936,7.83,7.83,0,0,1-.06.936l2,1.584a.465.465,0,0,1,.12.612l-1.92,3.324a.478.478,0,0,1-.417.248.471.471,0,0,1-.171-.032l-2.389-.96a7.166,7.166,0,0,1-1.62.936l-.36,2.544A.455.455,0,0,1,11.253,19.2ZM9.333,6a3.6,3.6,0,1,0,3.6,3.6A3.6,3.6,0,0,0,9.333,6Z" transform="translate(2.65 2.4)"/></clipPath></defs><path class="a" d="M11.253,19.2H7.413a.487.487,0,0,1-.481-.408l-.36-2.544a7,7,0,0,1-1.62-.936l-2.388.96A.524.524,0,0,1,2.4,16.3a.473.473,0,0,1-.422-.243L.057,12.732a.5.5,0,0,1,.121-.612L2.2,10.536A6.081,6.081,0,0,1,2.133,9.6a5.971,5.971,0,0,1,.084-.936L.189,7.08a.465.465,0,0,1-.12-.612l1.92-3.325A.478.478,0,0,1,2.406,2.9a.471.471,0,0,1,.171.032l2.389.96a7.234,7.234,0,0,1,1.62-.936L6.945.408A.467.467,0,0,1,7.413,0h3.839a.48.48,0,0,1,.481.408l.36,2.544a7.037,7.037,0,0,1,1.62.936l2.388-.96a.524.524,0,0,1,.166-.027.473.473,0,0,1,.422.243l1.921,3.325a.5.5,0,0,1-.121.612L16.461,8.664a5.979,5.979,0,0,1,.072.936,7.83,7.83,0,0,1-.06.936l2,1.584a.465.465,0,0,1,.12.612l-1.92,3.324a.478.478,0,0,1-.417.248.471.471,0,0,1-.171-.032l-2.389-.96a7.166,7.166,0,0,1-1.62.936l-.36,2.544A.455.455,0,0,1,11.253,19.2ZM9.333,6a3.6,3.6,0,1,0,3.6,3.6A3.6,3.6,0,0,0,9.333,6Z" transform="translate(2.65 2.4)"/></svg>