<svg xmlns="http://www.w3.org/2000/svg" xmlns:xlink="http://www.w3.org/1999/xlink" width="19" height="22" viewBox="0 0 19 22"><defs><style>.a{fill:#bac0c5;}.b{clip-path:url(#a);}</style><clipPath id="a"><path class="a" d="M17,22H6a2,2,0,0,1-2-2V6A2,2,0,0,1,6,4H17a2,2,0,0,1,2,2V20A2,2,0,0,1,17,22ZM6,6V20H17V6ZM2,16H0V2A2,2,0,0,1,2,0H14V2H2V16Z" transform="translate(2 1)"/></clipPath></defs><g transform="translate(-2 -1)"><path class="a" d="M17,22H6a2,2,0,0,1-2-2V6A2,2,0,0,1,6,4H17a2,2,0,0,1,2,2V20A2,2,0,0,1,17,22ZM6,6V20H17V6ZM2,16H0V2A2,2,0,0,1,2,0H14V2H2V16Z" transform="translate(2 1)"/></g></svg>