<svg xmlns="http://www.w3.org/2000/svg" xmlns:xlink="http://www.w3.org/1999/xlink" width="24" height="24" viewBox="0 0 24 24"><defs><style>.a{fill:#bac0c5;}.b{clip-path:url(#a);}</style><clipPath id="a"><path class="a" d="M2,16a2,2,0,1,1,2-2A2,2,0,0,1,2,16Zm0-6A2,2,0,1,1,4,8,2,2,0,0,1,2,10ZM2,4A2,2,0,1,1,4,2,2,2,0,0,1,2,4Z" transform="translate(10 4)"/></clipPath></defs><path class="a" d="M2,16a2,2,0,1,1,2-2A2,2,0,0,1,2,16Zm0-6A2,2,0,1,1,4,8,2,2,0,0,1,2,10ZM2,4A2,2,0,1,1,4,2,2,2,0,0,1,2,4Z" transform="translate(10 4)"/></svg>