<svg xmlns="http://www.w3.org/2000/svg" width="34.221" height="34.231" viewBox="0 0 34.221 34.231"><defs><style>.a{fill:#78e6d0;}</style></defs><g transform="translate(0)"><path class="a" d="M448.064,219.143a3.641,3.641,0,0,1,2.083,2.69,13.757,13.757,0,0,1,.09,1.839c.01.259.01.519,0,.779a1.042,1.042,0,0,1-1.037,1.056c-.067,0-.134,0-.2,0-1.655,0-3.308-.017-4.962.008a1.12,1.12,0,0,1-1.248-1.258c.04-.738-.045-1.487.042-2.218a3.672,3.672,0,0,1,2.137-2.9,3.006,3.006,0,0,1-1.4-2.983,2.821,2.821,0,0,1,1.088-1.9,2.99,2.99,0,0,1,4.085.342,3.022,3.022,0,0,1-.671,4.549m.674,4.866c0-.544.022-1.064,0-1.58a2.221,2.221,0,0,0-2.107-2.128,2.141,2.141,0,0,0-2.266,1.725,11.637,11.637,0,0,0-.021,1.983Zm-3.706-7.446a1.48,1.48,0,1,0,2.961-.008,1.5,1.5,0,0,0-1.5-1.466,1.471,1.471,0,0,0-1.457,1.475" transform="translate(-429.398 -202.429)"/><path class="a" d="M434.971,220.881c-.7,0-1.4.008-2.106-.006a.323.323,0,0,0-.364.263,2.971,2.971,0,0,1-5.757-1.3,2.824,2.824,0,0,1,1.9-2.468,2.779,2.779,0,0,1,3.092.628,4.743,4.743,0,0,1,.763,1.165c.092.167.158.243.353.241,1.385-.008,2.771-.007,4.155,0,.55,0,.871.28.875.74a.709.709,0,0,1-.746.742c-.721.008-1.443,0-2.164,0Zm-5.27-2.222a1.484,1.484,0,1,0,1.482,1.505,1.456,1.456,0,0,0-1.482-1.505" transform="translate(-426.725 -203.019)"/><path class="a" d="M436.2,210.717a3.1,3.1,0,0,1-2.025.378,3.053,3.053,0,0,1-2.475-2.7,2.975,2.975,0,0,1,2.383-3.144,2.972,2.972,0,0,1,3.272,4.169.335.335,0,0,0,.08.46c.838.819,1.664,1.652,2.494,2.481a.755.755,0,0,1,.238.783.7.7,0,0,1-.554.526.8.8,0,0,1-.773-.28c-.808-.81-1.62-1.615-2.428-2.424-.074-.074-.138-.159-.212-.246m-1.54-4.034a1.48,1.48,0,1,0,.013,2.961,1.5,1.5,0,0,0,1.481-1.49,1.481,1.481,0,0,0-1.495-1.471" transform="translate(-427.552 -201.028)"/><path class="a" d="M455.578,209.708a2.977,2.977,0,1,1,1.005,1.009c-.7.72-1.42,1.455-2.137,2.19q-.233.236-.47.468a.754.754,0,1,1-1.058-1.048q1.213-1.213,2.429-2.423c.075-.074.16-.137.231-.2m1.085-1.558a1.478,1.478,0,1,0,1.457-1.465,1.451,1.451,0,0,0-1.457,1.465" transform="translate(-431.034 -201.028)"/><path class="a" d="M457.82,220.886c-.566,0-1.134,0-1.7,0a.746.746,0,0,1-.836-.747.758.758,0,0,1,.829-.736c1.134-.008,2.268-.009,3.4,0a.37.37,0,0,0,.425-.3,2.988,2.988,0,1,1,.007,2.071.369.369,0,0,0-.425-.3c-.566.018-1.134.006-1.7.006m4.946-2.22a1.485,1.485,0,1,0,1.446,1.548,1.476,1.476,0,0,0-1.446-1.548" transform="translate(-431.478 -203.023)"/><path class="a" d="M447.4,231.843c0,.452.008.9,0,1.355a.3.3,0,0,0,.237.35,2.974,2.974,0,1,1-3.813,3.7,2.949,2.949,0,0,1,1.8-3.673.372.372,0,0,0,.3-.428q-.019-1.339,0-2.681a.74.74,0,0,1,.978-.765.713.713,0,0,1,.5.7c.008.48,0,.96,0,1.441Zm-2.218,4.519a1.467,1.467,0,0,0,1.506,1.484,1.491,1.491,0,0,0,1.454-1.515,1.471,1.471,0,0,0-1.514-1.445,1.451,1.451,0,0,0-1.446,1.476" transform="translate(-429.548 -205.102)"/><path class="a" d="M445.913,207.683c0-.443-.008-.884,0-1.326a.322.322,0,0,0-.251-.37,2.95,2.95,0,0,1-1.188-4.809,2.96,2.96,0,0,1,5.1,1.5,2.9,2.9,0,0,1-1.906,3.3.361.361,0,0,0-.276.413c.012.923.008,1.845,0,2.768a.693.693,0,0,1-.539.7.715.715,0,0,1-.838-.344,1.3,1.3,0,0,1-.1-.5c-.013-.442,0-.884,0-1.326m.747-5.972a1.477,1.477,0,1,0,1.481,1.509,1.472,1.472,0,0,0-1.481-1.509" transform="translate(-429.546 -200.198)"/><path class="a" d="M456.74,229.2c1.765-.7,3.185-.358,4.036.95a2.974,2.974,0,0,1-4.168,4.08,3.019,3.019,0,0,1-.894-3.983c-.628-.626-1.265-1.253-1.89-1.891a1.184,1.184,0,0,1-.288-.45.719.719,0,0,1,.328-.82.776.776,0,0,1,.93.133c.589.579,1.171,1.167,1.754,1.753.074.074.136.162.191.228m1.545,1.1a1.477,1.477,0,1,0,1.482,1.505,1.456,1.456,0,0,0-1.482-1.505" transform="translate(-431.183 -204.656)"/><path class="a" d="M431.7,231.76a2.962,2.962,0,0,1,4.222-2.677.35.35,0,0,0,.482-.1c.563-.579,1.138-1.147,1.711-1.716a.749.749,0,1,1,1.049,1.053c-.589.594-1.179,1.187-1.775,1.773a.25.25,0,0,0-.064.343,2.971,2.971,0,1,1-5.623,1.321m2.965,1.49a1.477,1.477,0,1,0-1.48-1.51,1.465,1.465,0,0,0,1.48,1.51" transform="translate(-427.554 -204.656)"/></g></svg>