<svg xmlns="http://www.w3.org/2000/svg" width="32.904" height="33.231" viewBox="0 0 32.904 33.231"><defs><style>.a{fill:#78e6d0;}</style></defs><g transform="translate(25.774 26.759)"><path class="a" d="M403.208,412.619a.652.652,0,0,0-.891-.239l-2.37,1.368a.652.652,0,1,0,.652,1.129l2.37-1.368A.652.652,0,0,0,403.208,412.619Z" transform="translate(-399.621 -412.293)"/></g><g transform="translate(0 0)"><g transform="translate(0)"><path class="a" d="M35.426,18.89a.643.643,0,0,0-.005-.08v-.005a.654.654,0,0,0-.014-.071l-.005-.019c-.005-.019-.012-.038-.019-.056l-.008-.019a.659.659,0,0,0-.034-.069v0a.653.653,0,0,0-.042-.063l-.013-.016q-.019-.023-.039-.045l-.014-.014a.642.642,0,0,0-.054-.048l0,0a.651.651,0,0,0-.066-.044l0,0-7.574-4.373V5.213s0,0,0-.006a.649.649,0,0,0-.005-.08v0a.636.636,0,0,0-.015-.072L27.5,5.033c-.006-.019-.012-.039-.02-.058l-.007-.018a.6.6,0,0,0-.078-.135l-.012-.015q-.019-.024-.04-.045l-.014-.014a.655.655,0,0,0-.055-.048l0,0a.655.655,0,0,0-.066-.044l0,0L19.3.087a.652.652,0,0,0-.652,0l-7.9,4.561,0,0a.65.65,0,0,0-.067.045l0,0a.653.653,0,0,0-.055.049l-.014.014q-.021.022-.04.046l-.012.016a.6.6,0,0,0-.078.134l-.007.019q-.011.028-.019.057l-.005.019a.65.65,0,0,0-.014.071v0a.645.645,0,0,0-.005.08s0,0,0,.006v8.746L2.848,18.331l0,0a.639.639,0,0,0-.067.045l0,0a.631.631,0,0,0-.055.049l-.014.014q-.021.022-.04.045l-.013.016a.656.656,0,0,0-.043.064h0a.647.647,0,0,0-.034.069l-.007.019c-.007.019-.014.038-.019.056l-.005.019a.643.643,0,0,0-.014.071v.005a.645.645,0,0,0-.005.08s0,0,0,.006v9.122h0a.652.652,0,0,0,.326.565l7.9,4.561,0,0a.654.654,0,0,0,.072.035l0,0a.653.653,0,0,0,.069.023l.019,0,.059.012.02,0a.6.6,0,0,0,.155,0l.02,0c.02,0,.039-.007.059-.012l.019,0a.632.632,0,0,0,.069-.023l0,0a.637.637,0,0,0,.072-.035l.005,0,7.574-4.373,7.574,4.373.005,0a.647.647,0,0,0,.072.035l.005,0a.64.64,0,0,0,.068.023l.02,0,.059.012.02,0a.6.6,0,0,0,.155,0l.02,0c.02,0,.039-.007.059-.012l.02,0a.631.631,0,0,0,.068-.023l.005,0a.658.658,0,0,0,.072-.035l.005,0,7.9-4.561a.652.652,0,0,0,.326-.565V18.9A.043.043,0,0,0,35.426,18.89Zm-5.9-2.27-6.6,3.808L20.278,18.9l6.6-3.808Zm-3.305-2.661-6.6,3.808V10.151l6.6-3.808ZM18.974,1.405l2.653,1.532-6.6,3.808L12.379,5.213Zm-7.9,13.683,2.653,1.532-6.6,3.808L4.478,18.9Zm-.652,16.361-6.6-3.808V20.025l2.81,1.622a.65.65,0,0,0,.314.182l3.472,2Zm.652-8.746L8.436,21.181l6.6-3.808L17.67,18.9Zm7.248,4.938-6.6,3.808V23.833l6.6-3.808Zm0-9.875-6.6-3.808V6.342l2.808,1.621a.65.65,0,0,0,.317.183l3.471,2v7.616ZM16.336,7.5l6.6-3.808L25.57,5.213l-6.6,3.808Zm9.886,23.951-6.6-3.808V20.025l2.809,1.622a.65.65,0,0,0,.314.181l3.472,2v7.616Zm.652-8.746-2.638-1.523,6.6-3.808L33.47,18.9Zm7.248,4.938-6.6,3.808V23.833l6.6-3.808Z" transform="translate(-2.522 0)"/></g></g><g transform="translate(29.799 25.908)"><path class="a" d="M462.267,399.171a.652.652,0,0,0,0,1.3A.652.652,0,0,0,462.267,399.171Z" transform="translate(-461.637 -399.171)"/></g></svg>