<svg xmlns="http://www.w3.org/2000/svg" width="35.603" height="30.437" viewBox="0 0 35.603 30.437"><defs><style>.a{fill:#78e6d0;}</style></defs><path class="a" d="M436.707,409.33c-.6.318-1.039.25-1.315-.182a.815.815,0,0,1,.138-1.079c.377-.356.783-.679,1.154-1.039a.733.733,0,0,0,.2-.436c.1-1.2.13-2.414.263-3.613a4.433,4.433,0,0,1,2.251-3.4,4.659,4.659,0,0,1,2.523-.665c1.737.017,3.474,0,5.211,0a4.73,4.73,0,0,1,4.826,4.632c.043.963.131,1.925.193,2.887a.61.61,0,0,0,.26.474c.429.341.833.714,1.244,1.077a.855.855,0,1,1-1.094,1.308c-.053-.043-.105-.087-.178-.147,0,.238,0,.443,0,.65.036,3.23.077,6.459.1,9.689q.024,2.682.008,5.365a4.337,4.337,0,0,1-2,3.786,3.878,3.878,0,0,1-2.144.689c-2.5.017-5,.035-7.5.008a4.222,4.222,0,0,1-4.245-4.33q-.013-6.157-.007-12.313c0-.974.069-1.947.1-2.922,0-.141,0-.283,0-.447m14.091,8.536h-.015c0-1.128.015-2.255,0-3.383-.028-1.665-.046-3.331-.129-4.993-.1-2-.279-3.99-.4-5.987a2.993,2.993,0,0,0-2.993-2.879q-2.744-.006-5.486.006a2.99,2.99,0,0,0-2.989,2.916c-.063,1.41-.181,2.817-.261,4.226-.084,1.49-.208,2.979-.218,4.47-.027,4.246-.005,8.492,0,12.738a3.163,3.163,0,0,0,.1.812,2.624,2.624,0,0,0,2.684,1.865q3.566-.006,7.131-.02a1.835,1.835,0,0,0,.422-.043,2.668,2.668,0,0,0,2.152-2.72q0-3.5,0-7.009" transform="translate(-426.829 -398.917)"/><path class="a" d="M465.257,416.376a8.641,8.641,0,0,0-2.377-5.9c-.082-.09-.173-.172-.253-.263a.839.839,0,0,1,.018-1.181.823.823,0,0,1,1.155-.037,8.723,8.723,0,0,1,.879.968,9.971,9.971,0,0,1,2.259,6.775,10.2,10.2,0,0,1-3.023,6.759.874.874,0,0,1-1.275.085.862.862,0,0,1,.051-1.272,9.325,9.325,0,0,0,1.908-2.835,8.373,8.373,0,0,0,.657-3.1" transform="translate(-431.345 -400.557)"/><path class="a" d="M428.83,408.706a.968.968,0,0,1,.786.545.847.847,0,0,1-.133.935,18.228,18.228,0,0,0-1.431,1.849,8.168,8.168,0,0,0,.688,9.492c.22.278.464.536.7.8a.851.851,0,0,1,.008,1.25.869.869,0,0,1-1.25-.089,10.243,10.243,0,0,1-3.019-6.48,10.341,10.341,0,0,1,3.043-7.953,2.8,2.8,0,0,1,.608-.35" transform="translate(-425.148 -400.546)"/><path class="a" d="M462.952,416.938a6.447,6.447,0,0,1-1.893,4.405.848.848,0,0,1-1.5-.284.992.992,0,0,1,.281-.915,8.025,8.025,0,0,0,.876-1.235,4.593,4.593,0,0,0-.763-5.3,1.712,1.712,0,0,1-.4-.658.781.781,0,0,1,.443-.882.82.82,0,0,1,1,.18,11.816,11.816,0,0,1,1.1,1.453,6.151,6.151,0,0,1,.855,3.237" transform="translate(-430.87 -401.09)"/><path class="a" d="M431.915,411.907a1,1,0,0,1,.8.531.821.821,0,0,1-.106.911,11.355,11.355,0,0,0-1,1.406,4.529,4.529,0,0,0,.654,5.126c.107.123.215.244.318.369a.828.828,0,0,1-.012,1.155.843.843,0,0,1-1.2.01,6.466,6.466,0,0,1-1.48-2.171,6.313,6.313,0,0,1,1.425-6.98,2.944,2.944,0,0,1,.606-.357" transform="translate(-425.854 -401.079)"/><path class="a" d="M445.277,406.242a12.56,12.56,0,0,1,4.114.668,1.142,1.142,0,0,1,.878,1.169c.1,1.305.211,2.609.337,3.911a1.065,1.065,0,0,1-1.345,1.213,17.241,17.241,0,0,0-3.916-.49,17.64,17.64,0,0,0-3.913.5,1.031,1.031,0,0,1-1.35-1.106c.069-1.174.181-2.346.276-3.52.016-.212.027-.424.047-.637a1.1,1.1,0,0,1,.776-.99,13.081,13.081,0,0,1,4.1-.718" transform="translate(-427.633 -400.136)"/><path class="a" d="M445.3,428.566a12.347,12.347,0,0,1-4.06-.679,1.1,1.1,0,0,1-.8-.969c-.11-.884-.233-1.769-.345-2.653a1.113,1.113,0,0,1,.781-1.287,12.3,12.3,0,0,1,5.7-.806,13.409,13.409,0,0,1,3.3.814,1.119,1.119,0,0,1,.735,1.312c-.118.853-.228,1.708-.325,2.564a1.148,1.148,0,0,1-.857,1.028,12.626,12.626,0,0,1-4.121.675" transform="translate(-427.633 -402.776)"/></svg>