<svg xmlns="http://www.w3.org/2000/svg" xmlns:xlink="http://www.w3.org/1999/xlink" width="94.803" height="71.341" viewBox="0 0 94.803 71.341"><defs><style>.a{fill:none;}.b{clip-path:url(#a);}.c{fill:#ebf0f4;}</style><clipPath id="a"><rect class="a" width="94.803" height="71.341"/></clipPath></defs><g class="b"><g transform="translate(-1201 -186.857)"><path class="c" d="M38.208,1015.72a16.471,16.471,0,1,0,16.471,16.471,16.471,16.471,0,0,0-16.471-16.471m0,26.636a10.165,10.165,0,1,1,10.165-10.165,10.166,10.166,0,0,1-10.165,10.165" transform="translate(1190.035 -828.863)"/><rect class="c" width="6.509" height="31.203" transform="translate(1201.217 187.727)"/><rect class="c" width="6.508" height="31.203" transform="translate(1248.762 187.727)"/><path class="c" d="M81.683,1015.72a16.471,16.471,0,1,0,16.471,16.471,16.471,16.471,0,0,0-16.471-16.471m0,26.636a10.165,10.165,0,1,1,10.165-10.165,10.165,10.165,0,0,1-10.165,10.165" transform="translate(1194.105 -828.863)"/><rect class="c" width="6.508" height="31.203" transform="translate(1296.305 187.727)"/><path class="c" d="M125.158,1015.72a16.471,16.471,0,1,0,16.471,16.471,16.471,16.471,0,0,0-16.471-16.471m0,26.636a10.165,10.165,0,1,1,10.165-10.165,10.165,10.165,0,0,1-10.165,10.165" transform="translate(1198.174 -828.863)"/><path class="c" d="M16.471,1050.832A16.471,16.471,0,1,0,32.942,1067.3a16.471,16.471,0,0,0-16.471-16.471m0,26.636A10.165,10.165,0,1,1,26.636,1067.3a10.166,10.166,0,0,1-10.165,10.165" transform="translate(1188 -825.576)"/><rect class="c" width="6.508" height="31.203" transform="translate(1224.988 226.127)"/><path class="c" d="M59.946,1050.832A16.471,16.471,0,1,0,76.417,1067.3a16.471,16.471,0,0,0-16.471-16.471m0,26.636A10.165,10.165,0,1,1,70.111,1067.3a10.165,10.165,0,0,1-10.165,10.165" transform="translate(1192.07 -825.576)"/><rect class="c" width="6.508" height="31.203" transform="translate(1272.533 226.127)"/><path class="c" d="M103.421,1050.832a16.471,16.471,0,1,0,16.471,16.471,16.471,16.471,0,0,0-16.471-16.471m0,26.636a10.165,10.165,0,1,1,10.165-10.165,10.165,10.165,0,0,1-10.165,10.165" transform="translate(1196.139 -825.576)"/></g></g></svg>