<svg xmlns="http://www.w3.org/2000/svg" xmlns:xlink="http://www.w3.org/1999/xlink" width="37.96" height="28.714" viewBox="0 0 37.96 28.714"><defs><style>.a{fill:none;}.b{opacity:0.5;clip-path:url(#a);}.c{fill:#dae1e5;}</style><clipPath id="a"><rect class="a" width="37.96" height="28.714"/></clipPath></defs><g class="b"><g transform="translate(-1201 -389.857)"><path class="c" d="M28.366,1015.72a6.629,6.629,0,1,0,6.629,6.629,6.629,6.629,0,0,0-6.629-6.629m0,10.72a4.091,4.091,0,1,1,4.091-4.091,4.091,4.091,0,0,1-4.091,4.091" transform="translate(1183.83 -625.863)"/><rect class="c" width="2.62" height="12.558" transform="translate(1201.318 390.207)"/><rect class="c" width="2.619" height="12.558" transform="translate(1220.453 390.207)"/><rect class="c" width="2.619" height="12.558" transform="translate(1239.453 390.207)"/><path class="c" d="M71.841,1015.72a6.629,6.629,0,1,0,6.629,6.629,6.629,6.629,0,0,0-6.629-6.629m0,10.72a4.091,4.091,0,1,1,4.091-4.091,4.091,4.091,0,0,1-4.091,4.091" transform="translate(1159.49 -625.863)"/><path class="c" d="M71.841,1015.72a6.629,6.629,0,1,0,6.629,6.629,6.629,6.629,0,0,0-6.629-6.629m0,10.72a4.091,4.091,0,1,1,4.091-4.091,4.091,4.091,0,0,1-4.091,4.091" transform="translate(1178.49 -625.863)"/><path class="c" d="M6.629,1050.832a6.629,6.629,0,1,0,6.629,6.629,6.629,6.629,0,0,0-6.629-6.629m0,10.72a4.091,4.091,0,1,1,4.091-4.091,4.091,4.091,0,0,1-4.091,4.091" transform="translate(1196 -645.52)"/><rect class="c" width="2.619" height="12.558" transform="translate(1210.887 405.662)"/><rect class="c" width="2.619" height="12.558" transform="translate(1229.887 405.662)"/><path class="c" d="M50.1,1050.832a6.629,6.629,0,1,0,6.629,6.629,6.629,6.629,0,0,0-6.629-6.629m0,10.72a4.091,4.091,0,1,1,4.091-4.091,4.091,4.091,0,0,1-4.091,4.091" transform="translate(1171.66 -645.52)"/><path class="c" d="M50.1,1050.832a6.629,6.629,0,1,0,6.629,6.629,6.629,6.629,0,0,0-6.629-6.629m0,10.72a4.091,4.091,0,1,1,4.091-4.091,4.091,4.091,0,0,1-4.091,4.091" transform="translate(1190.66 -645.52)"/></g></g></svg>