<svg xmlns="http://www.w3.org/2000/svg" width="774.793" height="370.759" viewBox="0 0 774.793 370.759"><defs><style>.a{fill:#dae1e5;opacity:0.2;}</style></defs><path class="a" d="M873.51,270.9,716.006,389.71A184.534,184.534,0,0,0,678.68,278.457c-61.612-81.762-177.839-98.1-259.6-36.484-.009.007-.018.015-.029.023h0L143.241,450.042l44.524,59.085,157.5-118.807A184.536,184.536,0,0,0,382.6,501.572c61.612,81.762,177.84,98.1,259.6,36.484l275.838-208.07ZM600.2,482.323a115.583,115.583,0,1,1,22.749-161.868A115.584,115.584,0,0,1,600.2,482.323" transform="translate(-143.241 -204.635)"/></svg>