<svg xmlns="http://www.w3.org/2000/svg" xmlns:xlink="http://www.w3.org/1999/xlink" width="129" height="32.44" viewBox="0 0 129 32.44"><defs><style>.a{fill:none;}.b{clip-path:url(#a);}.c{fill:#78e6d0;}</style><clipPath id="a"><rect class="a" width="129" height="32.44"/></clipPath></defs><g class="b"><g transform="translate(-292.029 -5640.706)"><path class="c" d="M1045.234,1201.871l-13.781,10.395a16.22,16.22,0,0,0-25.981-12.926h0l-24.134,18.2,3.9,5.17,13.781-10.395A16.22,16.22,0,0,0,1025,1225.246l24.135-18.207Zm-23.914,18.5a10.113,10.113,0,1,1,1.99-14.162,10.113,10.113,0,0,1-1.99,14.162" transform="translate(-697.308 4444.633)"/></g><g transform="translate(-249.029 -5640.706)"><path class="c" d="M1045.234,1201.871l-13.781,10.395a16.22,16.22,0,0,0-25.981-12.926h0l-24.134,18.2,3.9,5.17,13.781-10.395A16.22,16.22,0,0,0,1025,1225.246l24.135-18.207Zm-23.914,18.5a10.113,10.113,0,1,1,1.99-14.162,10.113,10.113,0,0,1-1.99,14.162" transform="translate(-697.308 4444.633)"/></g><g transform="translate(-206.029 -5640.706)"><path class="c" d="M1045.234,1201.871l-13.781,10.395a16.22,16.22,0,0,0-25.981-12.926h0l-24.134,18.2,3.9,5.17,13.781-10.395A16.22,16.22,0,0,0,1025,1225.246l24.135-18.207Zm-23.914,18.5a10.113,10.113,0,1,1,1.99-14.162,10.113,10.113,0,0,1-1.99,14.162" transform="translate(-697.308 4444.633)"/></g></g></svg>