<svg xmlns="http://www.w3.org/2000/svg" width="36.603" height="29.786" viewBox="0 0 36.603 29.786"><defs><style>.a{fill:#78e6d0;}</style></defs><g transform="translate(0 -0.076)"><path class="a" d="M-19.524,23.721A8.307,8.307,0,0,0-25.28,13.5a8.415,8.415,0,0,0-5.918.557c.059-.243.119-.477.183-.706,1.61-5.759,4.77-8.35,6.5-8.35l.076,0a.748.748,0,0,0,.744-.541l.959-3.432a.74.74,0,0,0-.086-.595.741.741,0,0,0-.5-.334A6.376,6.376,0,0,0-24.435,0c-4.662,0-9.458,5.047-11.4,12A19.826,19.826,0,0,0-35.9,22.684c1.061,3.568,3.246,5.98,6.152,6.792a8.328,8.328,0,0,0,2.239.309A8.322,8.322,0,0,0-19.524,23.721Zm19.216,0A8.307,8.307,0,0,0-6.063,13.5a8.416,8.416,0,0,0-5.918.557c.058-.242.118-.475.182-.706C-10.189,7.588-7.029,5-5.3,5l.076,0a.743.743,0,0,0,.744-.541l.96-3.432A.74.74,0,0,0-3.606.431.738.738,0,0,0-4.106.1,6.355,6.355,0,0,0-5.217,0c-4.663,0-9.458,5.046-11.4,12a19.829,19.829,0,0,0-.065,10.686c1.062,3.568,3.247,5.98,6.152,6.792a8.328,8.328,0,0,0,2.239.309A8.322,8.322,0,0,0-.308,23.721Z" transform="translate(36.603 0.076)"/></g></svg>